<?xml version="1.0" encoding="UTF-8"?><!DOCTYPE svg PUBLIC "-//W3C//DTD SVG 1.1//EN" "http://www.w3.org/Graphics/SVG/1.1/DTD/svg11.dtd"><svg xmlns="http://www.w3.org/2000/svg"><symbol id="alert" viewBox="0 0 24 24"><path stroke="currentColor" stroke-linecap="round" stroke-linejoin="round" stroke-width="2" d="M10.29 3.86L1.82 18a2 2 0 0 0 1.71 3h16.94a2 2 0 0 0 1.71-3L13.71 3.86a2 2 0 0 0-3.42 0zM12 9v4M12 16v.5"/></symbol><symbol id="arrow-next" viewBox="0 0 8 12"><path d="M1 11l5-5-5-5"/></symbol><symbol id="arrow-prev" viewBox="0 0 8 12"><path d="M7 1L2 6l5 5"/></symbol><symbol id="arrow" viewBox="0 0 11 6"><path stroke="currentColor" stroke-linecap="round" stroke-linejoin="round" stroke-width="2" d="M1 1l4.5 4L10 1"/></symbol><symbol id="close" viewBox="0 0 20 20"><path d="M18 2L2 18M2 2l16 16"/></symbol><symbol id="question" viewBox="0 0 24 24"><path stroke="currentColor" stroke-linecap="round" stroke-linejoin="round" stroke-width="2" d="M12 22c5.523 0 10-4.477 10-10S17.523 2 12 2 2 6.477 2 12s4.477 10 10 10z"/><path stroke="currentColor" stroke-linecap="round" stroke-linejoin="round" stroke-width="2" d="M9.09 9a3 3 0 0 1 5.83 1c0 2-3 3-3 3M12 16v.5"/></symbol><symbol id="share" viewBox="0 0 20 20"><path stroke="currentColor" stroke-linecap="round" stroke-linejoin="round" stroke-width="2" d="M15 6.667a2.5 2.5 0 1 0 0-5 2.5 2.5 0 0 0 0 5zM5 12.5a2.5 2.5 0 1 0 0-5 2.5 2.5 0 0 0 0 5zM15 18.333a2.5 2.5 0 1 0 0-5 2.5 2.5 0 0 0 0 5zM7.158 11.258l5.692 3.317M12.841 5.425L7.159 8.742"/></symbol></svg>